<svg xmlns="http://www.w3.org/2000/svg" viewBox="0 0 1200 800" role="img" aria-labelledby="t d"><title id="t">PBX telephone exchange</title><desc id="d">Central telephone exchange routing outside lines to office extensions</desc><rect width="1200" height="800" fill="#f7f4ef"/><rect x="420" y="170" width="360" height="460" rx="30" fill="#0c272b"/><text x="600" y="285" text-anchor="middle" font-family="Arial,sans-serif" font-size="64" font-weight="700" fill="#c99369">PBX</text><g fill="#fff"><rect x="485" y="340" width="230" height="55" rx="8"/><rect x="485" y="435" width="230" height="55" rx="8"/></g><g fill="none" stroke="#a96f47" stroke-width="12"><path d="M420 280H210v-90M420 390H155v210M780 280h210v-90M780 390h265v210"/></g><g fill="#fff" stroke="#234d52" stroke-width="9"><circle cx="210" cy="145" r="70"/><circle cx="155" cy="645" r="70"/><circle cx="990" cy="145" r="70"/><circle cx="1045" cy="645" r="70"/></g><path d="M180 130c18-18 38 2 50 14l15 15c8 8 8 20 0 28l-12 12c12 20 28 36 48 48l12-12c8-8 20-8 28 0l15 15c12 12 32 32 14 50-35 35-110-5-155-50s-85-120-15-120z" fill="#234d52" transform="translate(-45 -35) scale(.75)"/></svg>
